<?xml version="1.0" encoding="UTF-8" standalone="no"?>
<svg width="300" height="200" viewBox="0 0 300 200" xmlns="http://www.w3.org/2000/svg">
  <!-- Background Grid -->
  <pattern id="smallGrid" width="10" height="10" patternUnits="userSpaceOnUse">
    <path d="M 10 0 L 0 0 0 10" fill="none" stroke="#f0f0f0" stroke-width="0.5"/>
  </pattern>
  <rect width="100%" height="100%" fill="white"/>
  <rect width="100%" height="100%" fill="url(#smallGrid)"/>
  
  <!-- VDD Line -->
  <line x1="50" y1="30" x2="250" y2="30" stroke="#333" stroke-width="2"/>
  <text x="20" y="35" font-family="Arial" font-size="12" fill="#333">VDD</text>
  
  <!-- Left Transistor (Q1) -->
  <rect x="100" y="60" width="30" height="50" fill="none" stroke="#333" stroke-width="2" rx="2"/>
  <text x="110" y="90" font-family="Arial" font-size="12" fill="#333">Q1</text>
  
  <!-- Right Transistor (Q2) -->
  <rect x="170" y="60" width="30" height="50" fill="none" stroke="#333" stroke-width="2" rx="2"/>
  <text x="180" y="90" font-family="Arial" font-size="12" fill="#333">Q2</text>
  
  <!-- Gate Connections -->
  <line x1="85" y1="85" x2="100" y2="85" stroke="#333" stroke-width="2"/>
  <line x1="85" y1="85" x2="85" y2="140" stroke="#333" stroke-width="2"/>
  <line x1="85" y1="140" x2="115" y2="140" stroke="#333" stroke-width="2"/>
  <line x1="155" y1="85" x2="170" y2="85" stroke="#333" stroke-width="2"/>
  <line x1="155" y1="85" x2="155" y2="140" stroke="#333" stroke-width="2"/>
  
  <!-- Connection between Transistors -->
  <line x1="115" y1="50" x2="115" y2="60" stroke="#333" stroke-width="2"/>
  <line x1="185" y1="50" x2="185" y2="60" stroke="#333" stroke-width="2"/>
  <line x1="115" y1="50" x2="115" y2="30" stroke="#333" stroke-width="2"/>
  <line x1="185" y1="50" x2="185" y2="30" stroke="#333" stroke-width="2"/>
  
  <!-- Source Connections -->
  <line x1="115" y1="110" x2="115" y2="140" stroke="#333" stroke-width="2"/>
  <line x1="185" y1="110" x2="185" y2="140" stroke="#333" stroke-width="2"/>
  
  <!-- Ground Symbol -->
  <line x1="115" y1="140" x2="115" y2="160" stroke="#333" stroke-width="2"/>
  <line x1="105" y1="160" x2="125" y2="160" stroke="#333" stroke-width="2"/>
  <line x1="108" y1="165" x2="122" y2="165" stroke="#333" stroke-width="2"/>
  <line x1="111" y1="170" x2="119" y2="170" stroke="#333" stroke-width="2"/>
  
  <!-- Current Arrows -->
  <line x1="220" y1="85" x2="260" y2="85" stroke="#333" stroke-width="2"/>
  <text x="225" y="75" font-family="Arial" font-size="12" fill="#333">Iout</text>
  <polygon points="255,85 250,82 250,88" fill="#333"/>
  
  <line x1="200" y1="85" x2="220" y2="85" stroke="#333" stroke-width="2"/>
  
  <!-- Left Connection (Diode Connected) -->
  <line x1="115" y1="85" x2="130" y2="85" stroke="#333" stroke-width="2"/>
  <line x1="130" y1="85" x2="130" y2="50" stroke="#333" stroke-width="2"/>
  <line x1="130" y1="50" x2="115" y2="50" stroke="#333" stroke-width="2"/>
</svg> 