<?xml version="1.0" encoding="UTF-8" standalone="no"?>
<svg width="800" height="500" viewBox="0 0 800 500" xmlns="http://www.w3.org/2000/svg">
  <!-- Circuit Background -->
  <rect x="0" y="0" width="800" height="500" fill="#f8fafc" rx="10" ry="10" />
  
  <!-- Grid Lines -->
  <g stroke="#e2e8f0" stroke-width="1">
    <g id="vertical-lines">
      <line x1="100" y1="50" x2="100" y2="450" />
      <line x1="200" y1="50" x2="200" y2="450" />
      <line x1="300" y1="50" x2="300" y2="450" />
      <line x1="400" y1="50" x2="400" y2="450" />
      <line x1="500" y1="50" x2="500" y2="450" />
      <line x1="600" y1="50" x2="600" y2="450" />
      <line x1="700" y1="50" x2="700" y2="450" />
    </g>
    <g id="horizontal-lines">
      <line x1="50" y1="100" x2="750" y2="100" />
      <line x1="50" y1="200" x2="750" y2="200" />
      <line x1="50" y1="300" x2="750" y2="300" />
      <line x1="50" y1="400" x2="750" y2="400" />
    </g>
  </g>
  
  <!-- Circuit Components -->
  <!-- VGS Source -->
  <circle cx="100" cy="250" r="30" fill="white" stroke="#2563eb" stroke-width="2" />
  <text x="100" y="255" font-family="Arial" font-size="12" text-anchor="middle" fill="#1e293b">VGS</text>
  <text x="100" y="270" font-family="Arial" font-size="10" text-anchor="middle" fill="#475569">0-10V</text>
  
  <!-- VDS Source -->
  <circle cx="700" cy="250" r="30" fill="white" stroke="#2563eb" stroke-width="2" />
  <text x="700" y="255" font-family="Arial" font-size="12" text-anchor="middle" fill="#1e293b">VDS</text>
  <text x="700" y="270" font-family="Arial" font-size="10" text-anchor="middle" fill="#475569">0-10V</text>
  
  <!-- Ground Symbols -->
  <g id="ground1" transform="translate(100,350)">
    <line x1="0" y1="0" x2="0" y2="20" stroke="#1e293b" stroke-width="2" />
    <line x1="-15" y1="20" x2="15" y2="20" stroke="#1e293b" stroke-width="2" />
    <line x1="-10" y1="25" x2="10" y2="25" stroke="#1e293b" stroke-width="2" />
    <line x1="-5" y1="30" x2="5" y2="30" stroke="#1e293b" stroke-width="2" />
  </g>
  
  <g id="ground2" transform="translate(400,350)">
    <line x1="0" y1="0" x2="0" y2="20" stroke="#1e293b" stroke-width="2" />
    <line x1="-15" y1="20" x2="15" y2="20" stroke="#1e293b" stroke-width="2" />
    <line x1="-10" y1="25" x2="10" y2="25" stroke="#1e293b" stroke-width="2" />
    <line x1="-5" y1="30" x2="5" y2="30" stroke="#1e293b" stroke-width="2" />
  </g>
  
  <g id="ground3" transform="translate(700,350)">
    <line x1="0" y1="0" x2="0" y2="20" stroke="#1e293b" stroke-width="2" />
    <line x1="-15" y1="20" x2="15" y2="20" stroke="#1e293b" stroke-width="2" />
    <line x1="-10" y1="25" x2="10" y2="25" stroke="#1e293b" stroke-width="2" />
    <line x1="-5" y1="30" x2="5" y2="30" stroke="#1e293b" stroke-width="2" />
  </g>
  
  <!-- MOSFET Symbol -->
  <g id="mosfet" transform="translate(400,250)">
    <!-- Drain -->
    <line x1="0" y1="-70" x2="0" y2="-30" stroke="#1e293b" stroke-width="3" />
    <!-- Source -->
    <line x1="0" y1="30" x2="0" y2="70" stroke="#1e293b" stroke-width="3" />
    <!-- Gate -->
    <line x1="-60" y1="0" x2="-15" y2="0" stroke="#1e293b" stroke-width="3" />
    <!-- Channel -->
    <line x1="-10" y1="-30" x2="-10" y2="30" stroke="#1e293b" stroke-width="3" />
    <!-- Connections -->
    <line x1="-10" y1="0" x2="0" y2="0" stroke="#1e293b" stroke-width="3" />
    
    <!-- Body -->
    <rect x="-10" y="-30" width="20" height="60" fill="none" stroke="#1e293b" stroke-width="2" />
    
    <!-- Arrow for N-channel -->
    <polyline points="0,10 10,0 0,-10" fill="none" stroke="#1e293b" stroke-width="2" />
  </g>
  
  <!-- Load Resistor -->
  <g id="resistor" transform="translate(550,170)">
    <line x1="0" y1="0" x2="0" y2="20" stroke="#1e293b" stroke-width="2" />
    <path d="M0,20 L-10,25 L10,35 L-10,45 L10,55 L-10,65 L10,75 L0,80" fill="none" stroke="#1e293b" stroke-width="2" transform="translate(0,0)" />
    <line x1="0" y1="100" x2="0" y2="120" stroke="#1e293b" stroke-width="2" />
    <text x="20" y="60" font-family="Arial" font-size="14" fill="#1e293b">RL</text>
    <text x="20" y="80" font-family="Arial" font-size="12" fill="#475569">1kΩ</text>
  </g>
  
  <!-- Current Meter -->
  <g id="ammeter" transform="translate(550,100)">
    <circle cx="0" cy="0" r="20" fill="white" stroke="#ef4444" stroke-width="2" />
    <text x="0" y="5" font-family="Arial" font-size="14" text-anchor="middle" fill="#ef4444">ID</text>
  </g>
  
  <!-- Gate Resistor -->
  <g id="gate-resistor" transform="translate(200,250)">
    <line x1="-35" y1="0" x2="-20" y2="0" stroke="#1e293b" stroke-width="2" />
    <path d="M-20,0 L-15,-5 L-5,5 L5,-5 L15,5 L25,-5 L35,5 L40,0" fill="none" stroke="#1e293b" stroke-width="2" />
    <line x1="40" y1="0" x2="55" y2="0" stroke="#1e293b" stroke-width="2" />
    <text x="0" y="-10" font-family="Arial" font-size="14" text-anchor="middle" fill="#1e293b">RG</text>
    <text x="0" y="-25" font-family="Arial" font-size="12" text-anchor="middle" fill="#475569">100kΩ</text>
  </g>
  
  <!-- Capacitors -->
  <g id="capacitor1" transform="translate(100,140)">
    <line x1="0" y1="0" x2="0" y2="40" stroke="#1e293b" stroke-width="2" />
    <line x1="-15" y1="40" x2="15" y2="40" stroke="#1e293b" stroke-width="2" />
    <line x1="-15" y1="50" x2="15" y2="50" stroke="#1e293b" stroke-width="2" />
    <line x1="0" y1="50" x2="0" y2="90" stroke="#1e293b" stroke-width="2" />
    <text x="25" y="50" font-family="Arial" font-size="14" fill="#1e293b">C1</text>
    <text x="25" y="65" font-family="Arial" font-size="12" fill="#475569">1μF</text>
  </g>
  
  <g id="capacitor2" transform="translate(700,140)">
    <line x1="0" y1="0" x2="0" y2="40" stroke="#1e293b" stroke-width="2" />
    <line x1="-15" y1="40" x2="15" y2="40" stroke="#1e293b" stroke-width="2" />
    <line x1="-15" y1="50" x2="15" y2="50" stroke="#1e293b" stroke-width="2" />
    <line x1="0" y1="50" x2="0" y2="90" stroke="#1e293b" stroke-width="2" />
    <text x="-25" y="50" font-family="Arial" font-size="14" text-anchor="end" fill="#1e293b">C2</text>
    <text x="-25" y="65" font-family="Arial" font-size="12" text-anchor="end" fill="#475569">10μF</text>
  </g>
  
  <!-- Connecting Wires -->
  <g id="wires" stroke="#1e293b" stroke-width="2">
    <!-- VGS to Gate Resistor -->
    <line x1="100" y1="220" x2="100" y2="250" />
    <line x1="100" y1="250" x2="165" y2="250" />
    
    <!-- Gate Resistor to MOSFET Gate -->
    <line x1="255" y1="250" x2="340" y2="250" />
    
    <!-- Drain Connections -->
    <line x1="400" y1="180" x2="400" y2="100" />
    <line x1="400" y1="100" x2="550" y2="100" />
    <line x1="550" y1="170" x2="550" y2="100" />
    
    <!-- Source Connection to Ground -->
    <line x1="400" y1="320" x2="400" y2="350" />
    
    <!-- VDS to Drain via Load -->
    <line x1="700" y1="220" x2="700" y2="100" />
    <line x1="550" y1="290" x2="550" y2="350" />
    <line x1="550" y1="350" x2="700" y2="350" />
    <line x1="700" y1="280" x2="700" y2="350" />
  </g>
  
  <!-- Component Parameters Labels -->
  <g id="parameters" font-family="Arial" font-size="14" fill="#1e293b">
    <!-- MOSFET Parameters -->
    <rect x="450" y="50" width="250" height="110" fill="white" stroke="#2563eb" stroke-width="1" rx="5" ry="5" />
    <text x="460" y="70" font-weight="bold">MOSFET Parameters:</text>
    <text x="460" y="90">Threshold Voltage (V<tspan font-size="10" baseline-shift="sub">th</tspan>): 2.0V</text>
    <text x="460" y="110">Transconductance (K): 0.5 mA/V²</text>
    <text x="460" y="130">Channel Length Mod (λ): 0.02 V⁻¹</text>
    <text x="460" y="150">Type: N-Channel Enhancement</text>
    
    <!-- Circuit Settings -->
    <rect x="50" y="50" width="220" height="70" fill="white" stroke="#2563eb" stroke-width="1" rx="5" ry="5" />
    <text x="60" y="70" font-weight="bold">Circuit Settings:</text>
    <text x="60" y="90">Drain Supply (V<tspan font-size="10" baseline-shift="sub">DS</tspan>): <tspan id="vds-value" fill="#ef4444">5.0V</tspan></text>
    <text x="60" y="110" >Gate Bias (V<tspan font-size="10" baseline-shift="sub">GS</tspan>): <tspan id="vgs-value" fill="#ef4444">3.0V</tspan></text>
  </g>
  
  <!-- Title -->
  <text x="400" y="30" font-family="Arial" font-size="18" font-weight="bold" text-anchor="middle" fill="#1e293b">MOSFET Test Circuit with Variable Components</text>
  
  <!-- Operating Point Info -->
  <g id="operating-point">
    <rect x="50" y="400" width="220" height="70" fill="white" stroke="#2563eb" stroke-width="1" rx="5" ry="5" />
    <text x="60" y="420" font-family="Arial" font-size="14" font-weight="bold" fill="#1e293b">Operating Point:</text>
    <text x="60" y="440" font-family="Arial" font-size="14" fill="#1e293b">Drain Current (I<tspan font-size="10" baseline-shift="sub">D</tspan>): <tspan id="id-value" fill="#ef4444">0.50mA</tspan></text>
    <text x="60" y="460" font-family="Arial" font-size="14" fill="#1e293b">Operation Region: <tspan id="region-value" fill="#ef4444">Saturation</tspan></text>
  </g>
  
  <!-- JavaScript to update circuit values -->
  <script type="text/javascript"><![CDATA[
    // This script would be used to update the diagram values dynamically
    function updateCircuitValues(vgs, vds, id, region) {
      document.getElementById('vgs-value').textContent = vgs.toFixed(1) + 'V';
      document.getElementById('vds-value').textContent = vds.toFixed(1) + 'V';
      document.getElementById('id-value').textContent = id.toFixed(2) + 'mA';
      document.getElementById('region-value').textContent = region;
    }
    
    // Example initial values
    updateCircuitValues(3.0, 5.0, 0.50, "Saturation");
  ]]></script>
</svg> 