<?xml version="1.0" encoding="UTF-8" standalone="no"?>
<svg width="300" height="150" viewBox="0 0 300 150" xmlns="http://www.w3.org/2000/svg">
  <!-- Background Grid -->
  <pattern id="smallGrid" width="10" height="10" patternUnits="userSpaceOnUse">
    <path d="M 10 0 L 0 0 0 10" fill="none" stroke="#f0f0f0" stroke-width="0.5"/>
  </pattern>
  <rect width="100%" height="100%" fill="white"/>
  <rect width="100%" height="100%" fill="url(#smallGrid)"/>
  
  <!-- Block Diagram -->
  <!-- Phase Detector -->
  <rect x="40" y="55" width="50" height="40" fill="none" stroke="#333" stroke-width="2" rx="2"/>
  <text x="50" y="80" font-family="Arial" font-size="10" fill="#333">PD</text>
  
  <!-- Loop Filter -->
  <rect x="120" y="55" width="50" height="40" fill="none" stroke="#333" stroke-width="2" rx="2"/>
  <text x="130" y="80" font-family="Arial" font-size="10" fill="#333">LPF</text>
  
  <!-- VCO -->
  <rect x="200" y="55" width="50" height="40" fill="none" stroke="#333" stroke-width="2" rx="2"/>
  <text x="210" y="80" font-family="Arial" font-size="10" fill="#333">VCO</text>
  
  <!-- Divider -->
  <rect x="120" y="105" width="50" height="30" fill="none" stroke="#333" stroke-width="2" rx="2"/>
  <text x="130" y="125" font-family="Arial" font-size="10" fill="#333">÷N</text>
  
  <!-- Connections -->
  <line x1="20" y1="75" x2="40" y2="75" stroke="#333" stroke-width="2"/>
  <text x="25" y="70" font-family="Arial" font-size="10" fill="#333">Ref</text>
  
  <line x1="90" y1="75" x2="120" y2="75" stroke="#333" stroke-width="2"/>
  <line x1="170" y1="75" x2="200" y2="75" stroke="#333" stroke-width="2"/>
  <line x1="250" y1="75" x2="280" y2="75" stroke="#333" stroke-width="2"/>
  <text x="260" y="70" font-family="Arial" font-size="10" fill="#333">Out</text>
  
  <!-- Feedback Path -->
  <line x1="250" y1="75" x2="265" y2="75" stroke="#333" stroke-width="2"/>
  <line x1="265" y1="75" x2="265" y2="120" stroke="#333" stroke-width="2"/>
  <line x1="265" y1="120" x2="170" y2="120" stroke="#333" stroke-width="2"/>
  <line x1="120" y1="120" x2="65" y2="120" stroke="#333" stroke-width="2"/>
  <line x1="65" y1="120" x2="65" y2="95" stroke="#333" stroke-width="2"/>
  
  <!-- Arrows -->
  <polygon points="118,75 114,72 114,78" fill="#333"/>
  <polygon points="198,75 194,72 194,78" fill="#333"/>
  <polygon points="278,75 274,72 274,78" fill="#333"/>
  <polygon points="65,97 62,93 68,93" fill="#333"/>
  <polygon points="172,120 168,117 168,123" fill="#333"/>
  
  <!-- Waves -->
  <path d="M10,75 L15,75 L15,65 L20,65 L20,85 L25,85 L25,65 L30,85 L30,75 L35,75" 
        fill="none" stroke="#333" stroke-width="1"/>
  <path d="M250,30 C255,30 255,40 260,40 C265,40 265,30 270,30 C275,30 275,40 280,40"
        fill="none" stroke="#333" stroke-width="1"/>
  <line x1="265" y1="45" x2="265" y2="75" stroke="#333" stroke-width="1" stroke-dasharray="4"/>
</svg> 